<svg width="488" height="96" viewBox="0 0 488 96" fill="none" xmlns="http://www.w3.org/2000/svg">
<mask id="mask0_3001_354" style="mask-type:luminance" maskUnits="userSpaceOnUse" x="0" y="0" width="96" height="96">
<path d="M48 96C74.5097 96 96 74.5097 96 48C96 21.4903 74.5097 0 48 0C21.4903 0 0 21.4903 0 48C0 74.5097 21.4903 96 48 96Z" fill="white"/>
</mask>
<g mask="url(#mask0_3001_354)">
<path d="M70.8529 0.229248L87.7459 16.8763L-6.28614 80.2865L-23.1758 63.6362L70.8529 0.229248Z" fill="#063737"/>
<path d="M-50.9709 58.1904L-62.9844 46.3521L75.1588 -17.4727L87.1689 -5.63104L-50.9709 58.1904Z" fill="#063737"/>
<path d="M25.1299 95.7709L8.24023 79.1239L102.269 15.7136L119.159 32.364L25.1299 95.7709Z" fill="#063737"/>
<path d="M146.954 37.8098L158.968 49.6514L20.8246 113.473L8.81445 101.631L146.954 37.8098Z" fill="#063737"/>
</g>
<path d="M484.255 36.2401H473.503C472.255 31.5361 467.935 29.7121 462.175 29.7121C457.183 29.7121 452.575 31.9201 452.575 35.3761C452.575 38.8321 454.975 40.6561 459.487 41.5201L466.783 42.9601C477.247 44.9761 485.215 48.2401 485.215 58.3201C485.215 69.0721 475.039 75.0241 463.327 75.0241C450.655 75.0241 442.207 67.7281 440.959 58.0321H452.095C453.151 63.4081 456.895 66.3841 463.711 66.3841C469.759 66.3841 474.079 63.8881 474.079 59.6641C474.079 55.4401 470.239 53.6161 465.151 52.5601L457.375 51.0241C448.639 49.2001 441.823 45.4561 441.823 35.9521C441.823 26.8321 451.711 20.9761 462.847 20.9761C472.927 20.9761 482.143 25.8721 484.255 36.2401Z" fill="#001414"/>
<path d="M390.521 58.8002L399.353 22.1282H411.161L420.089 58.8002L427.673 22.1282H440.057L426.329 73.7762H415.481L405.305 35.5682L395.129 73.7762H384.281L370.553 22.1282H382.937L390.521 58.8002Z" fill="#001414"/>
<path d="M330.925 48.0481C330.925 60.0481 337.261 65.7121 344.557 65.7121C351.853 65.7121 358.189 60.0481 358.189 48.0481C358.189 36.1441 351.853 30.2881 344.557 30.2881C337.261 30.2881 330.925 36.1441 330.925 48.0481ZM344.557 20.9761C357.133 20.9761 369.997 29.4241 369.997 48.0481C369.997 66.7681 357.133 75.0241 344.557 75.0241C331.981 75.0241 319.117 66.7681 319.117 48.0481C319.117 29.4241 331.981 20.9761 344.557 20.9761Z" fill="#001414"/>
<path d="M319.365 22.224V33.744C317.445 33.552 315.621 33.456 313.893 33.456C306.693 33.456 302.565 36.336 302.565 46.704V73.776H291.141V22.128H302.373V31.344C305.157 25.584 310.149 22.128 316.389 22.032C317.253 22.032 318.501 22.128 319.365 22.224Z" fill="#001414"/>
<path d="M248.912 22.1281V29.3281C251.888 23.9521 257.264 20.9761 264.56 20.9761C277.04 20.9761 282.128 29.0401 282.128 41.3281V73.7761H270.704V44.1121C270.704 37.2001 269.744 30.2881 260.912 30.2881C252.08 30.2881 248.912 37.0081 248.912 46.3201V73.7761H237.488V22.1281H248.912Z" fill="#001414"/>
<path d="M230.962 51.2161H192.466C193.234 60.8161 199.954 65.5201 206.482 65.5201C212.53 65.5201 217.138 63.2161 219.154 58.3201H230.386C228.082 66.5761 220.21 75.0241 206.962 75.0241C190.354 75.0241 180.85 62.4481 180.85 47.5681C180.85 32.0161 191.602 20.9761 206.194 20.9761C222.034 20.9761 232.018 33.9361 230.962 51.2161ZM206.194 29.9041C200.818 29.9041 193.522 33.1681 192.466 42.8641H219.346C219.058 34.8001 212.914 29.9041 206.194 29.9041Z" fill="#001414"/>
<path d="M136 73.7762V65.0402L163.648 30.8642H137.92V22.1282H177.856V30.8642L150.112 65.0402H178.528V73.7762H136Z" fill="#001414"/>
</svg>
